<svg xmlns="http://www.w3.org/2000/svg" viewBox="6036 4831 40 40" fill="currentColor" aria-hidden="true"><path fill-rule="evenodd" d="M 6052.162103574811 4833.144414389205 C 6052.640403574811 4832.825650389205 6054.164503574811 4832.196913389205 6054.722203574811 4832.088345289205 C 6055.314803574811 4831.972936889205 6057.855303574811 4831.969811489205 6058.260003574811 4832.083949489205 C 6058.449003574811 4832.137305389205 6058.940603574811 4832.207175389205 6059.352303574811 4832.239325389205 C 6060.832103574811 4832.354929389205 6061.1775035748105 4832.574117389205 6061.1775035748105 4833.397224389205 C 6061.1775035748105 4833.737974389205 6060.938403574811 4834.282474389205 6059.878303574811 4836.356504389205 C 6059.1114035748105 4837.856804389205 6058.449803574811 4839.294184389205 6058.263803574811 4839.864484389205 C 6058.086103574811 4840.4090843892045 6057.780403574811 4841.811574389205 6057.563003574811 4843.078344389205 C 6057.008603574811 4846.310944389205 6056.795103574811 4846.961144389205 6055.286003574811 4850.016544389205 C 6054.834703574811 4850.930244389205 6054.247203574811 4852.120544389205 6053.980503574811 4852.661844389205 C 6053.473403574811 4853.690744389205 6052.736603574811 4854.533144389205 6052.063003574811 4854.854244389205 C 6051.741303574811 4855.007644389205 6051.127503574811 4855.966044389205 6051.288503574811 4856.063844389205 C 6051.538803574811 4856.216044389205 6053.341103574811 4855.098444389205 6054.602703574811 4854.008844389205 C 6054.967103574811 4853.694144389205 6055.885103574811 4852.904044389205 6056.642603574811 4852.253144389205 C 6058.993203574811 4850.233344389205 6059.550603574811 4849.5389443892045 6060.569803574811 4847.361044389205 C 6060.829903574811 4846.8051443892045 6061.196903574811 4845.914744389205 6061.385303574811 4845.382544389205 C 6061.788803574811 4844.242344389205 6062.928503574811 4839.9439343892045 6063.283403574811 4838.223944389205 C 6063.563303574811 4836.866994389205 6063.705603574811 4836.399694389205 6064.200503574811 4835.211794389205 C 6064.962803574811 4833.382264389205 6065.350103574811 4832.861317389205 6066.232403574811 4832.477958389205 C 6066.638703574811 4832.301572389205 6067.027703574811 4832.261506389205 6069.198403574811 4832.172580389205 C 6071.887003574811 4832.062546889205 6072.758803574811 4832.126554389205 6073.344403574811 4832.476688389205 C 6073.908503574811 4832.814020389205 6073.952303574811 4833.757424389205 6073.438703574811 4834.503034389205 C 6073.2998035748105 4834.704724389205 6072.780103574811 4835.305514389205 6072.284003574811 4835.838194389205 C 6071.148203574811 4837.057554389205 6070.4684035748105 4838.021474389205 6070.096703574811 4838.939654389205 C 6069.936603574811 4839.3351343892045 6069.644603574811 4840.470744389205 6069.447003574811 4841.465934389205 C 6068.7211035748105 4845.121944389205 6068.112203574811 4846.735244389205 6066.606803574811 4848.990444389205 C 6065.466503574811 4850.698544389205 6064.260403574811 4851.946344389205 6062.945003574811 4852.778644389205 C 6062.040703574811 4853.350844389205 6059.475503574811 4854.519644389205 6058.064003574811 4855.002744389205 C 6056.734803574811 4855.457644389205 6056.474203574811 4855.579244389205 6056.474203574811 4855.745144389205 C 6056.474203574811 4855.914944389205 6057.109903574811 4855.824044389205 6058.641703574811 4855.435144389205 C 6060.644303574811 4854.926744389205 6061.377503574811 4854.873444389205 6062.734303574811 4855.138144389205 C 6063.308103574811 4855.250144389205 6064.055403574811 4855.341844389205 6064.394903574811 4855.342044389205 C 6065.926203574811 4855.342744389205 6067.207603574811 4854.383944389205 6068.443403574811 4852.312944389205 C 6068.868303574811 4851.600944389205 6069.115803574811 4851.075344389205 6069.984103574811 4849.039344389205 C 6070.651403574811 4847.475044389205 6072.746803574811 4843.584944389205 6073.132603574811 4843.194344389205 C 6073.765603574811 4842.553444389205 6074.218103574811 4842.585944389205 6074.574603574811 4843.297844389205 C 6074.7971035748105 4844.365244389205 6075.175203574811 4847.154944389205 6074.908303574811 4849.773844389205 C 6074.641403574811 4852.392744389205 6074.300303574811 4854.552644389205 6074.163203574811 4855.3051443892045 C 6073.603503574811 4856.519044389205 6073.150503574811 4856.890544389205 6071.969903574811 4857.103744389205 C 6071.013703574811 4857.276344389205 6067.878403574811 4857.259344389205 6066.361103574811 4857.073444389205 C 6063.247503574811 4856.691744389205 6060.186303574811 4856.510344389205 6058.631103574811 4856.615344389205 C 6056.729103574811 4856.743744389205 6056.804103574811 4856.891344389205 6058.975903574811 4857.293744389205 C 6059.824903574811 4857.451144389205 6061.520903574811 4857.716044389205 6062.744803574811 4857.882344389205 C 6066.107703574811 4858.339544389205 6068.066703574811 4858.873544389205 6069.471003574811 4859.716044389205 C 6070.151203574811 4860.124144389205 6072.391503574811 4861.909044389205 6072.990403574811 4862.520144389205 C 6073.544603574811 4863.085444389205 6074.032403574811 4863.840444389205 6074.301703574811 4864.549544389205 C 6074.503103574811 4865.079844389205 6074.544503574811 4865.419244389205 6074.606703574811 4867.048644389205 C 6074.681903574811 4869.018944389205 6074.624803574811 4869.450544389205 6074.274803574811 4869.553244389205 C 6073.795803574811 4869.693744389205 6071.538703574811 4869.999644389205 6070.977703574811 4870.000044389205 C 6069.806303574811 4870.000744389205 6068.443303574811 4869.530344389205 6067.793103574811 4868.900944389205 C 6067.339203574811 4868.461644389205 6067.058303574811 4867.870644389205 6066.751403574811 4866.709244389205 C 6066.292503574811 4864.971844389205 6065.915903574811 4864.547244389205 6063.777603574811 4863.3559443892045 C 6061.611203574811 4862.148844389205 6061.298103574811 4861.948844389205 6060.358903574811 4861.1720443892045 C 6058.157403574811 4859.351144389205 6056.388303574811 4858.443744389205 6054.514803574811 4858.174344389205 C 6053.058603574811 4857.964944389205 6051.713003574811 4858.323844389205 6048.9720035748105 4859.652844389205 C 6048.097603574811 4860.076844389205 6047.225703574811 4860.510744389205 6047.034403574811 4860.617144389205 C 6046.843133574811 4860.723544389205 6046.426383574811 4860.903744389205 6046.108413574811 4861.017644389205 C 6045.420503574811 4861.263944389205 6045.420903574811 4861.390944389205 6046.108813574811 4861.168544389205 C 6046.944083574811 4860.898444389205 6049.011903574811 4860.444544389205 6050.860003574811 4860.125544389205 C 6052.515903574811 4859.839744389205 6052.766503574811 4859.820644389205 6054.238503574811 4859.867844389205 C 6055.209003574811 4859.898944389205 6056.036203574811 4859.976844389205 6056.361803574811 4860.067744389205 C 6057.791303574811 4860.466944389205 6058.907403574811 4861.289344389205 6060.459403574811 4863.086744389205 C 6061.571603574811 4864.374844389205 6063.858603574811 4866.674144389205 6064.954603574811 4867.606244389205 C 6065.351803574811 4867.944044389205 6065.571903574811 4868.219444389205 6065.667203574811 4868.498244389205 C 6065.926803574811 4869.256844389205 6065.578203574811 4869.807544389205 6064.841103574811 4869.803544389205 C 6064.693403574811 4869.802644389205 6064.084203574811 4869.714744389205 6063.487603574811 4869.608044389205 C 6062.182403574811 4869.374744389205 6061.324003574811 4869.366344389205 6060.001703574811 4869.573844389205 C 6058.706303574811 4869.777244389205 6051.228903574811 4869.884044389205 6050.382603574811 4869.711244389205 C 6049.501803574811 4869.531344389205 6048.355603574811 4868.925044389205 6047.552303574811 4868.213744389205 C 6047.022403574811 4867.744544389205 6046.622533574811 4867.489244389205 6046.061813574811 4867.261744389205 C 6045.640303574811 4867.090744389205 6044.982503574811 4866.812444389205 6044.599943574811 4866.643344389205 C 6043.972943574811 4866.366144389205 6043.811373574811 4866.336344389205 6042.960393574811 4866.340844389205 C 6041.867863574811 4866.346644389205 6041.039153574811 4866.553644389205 6040.577003574811 4866.936144389205 C 6040.245613574811 4867.210344389205 6039.783863574811 4868.027444389205 6039.577973574811 4868.704044389205 C 6039.414123574811 4869.242444389205 6039.217573574811 4869.405344389205 6038.619483574811 4869.498244389205 C 6037.588861574811 4869.6585443892045 6036.996838044811 4869.403044389205 6037.000117124611 4868.799544389205 C 6037.004191134811 4868.071244389205 6037.207394574811 4866.648744389205 6037.344917574811 4866.387344389205 C 6037.597407574811 4865.907144389205 6038.524693574811 4864.899244389205 6039.302233574811 4864.259844389205 C 6040.146443574811 4863.565644389205 6040.663353574811 4862.915044389205 6040.740063574811 4862.450244389205 C 6040.772353574811 4862.254744389205 6040.634933574811 4861.460744389205 6040.384433574811 4860.395444389205 C 6040.159963574811 4859.440444389205 6039.820923574811 4857.717844389205 6039.631033574811 4856.567244389205 C 6039.441143574811 4855.4166443892045 6039.1918335748105 4854.228344389205 6039.077063574811 4853.926644389205 C 6038.962303574811 4853.624844389205 6038.558183574811 4852.929444389205 6038.178993574811 4852.381244389205 C 6037.799915574811 4851.833144389205 6037.420634574811 4851.164744389205 6037.336273574811 4850.896044389205 C 6037.118959574811 4850.203944389205 6037.014922974811 4842.620044389205 6037.217729574811 4842.247744389205 C 6037.436632574811 4841.845674389205 6037.869372574811 4841.872744389205 6038.4486735748105 4842.324644389205 C 6039.356883574811 4843.033144389205 6040.324713574811 4844.058344389205 6040.647053574811 4844.653644389205 C 6041.218513574811 4845.708644389205 6041.280313574811 4846.127944389205 6041.258253574811 4848.795044389205 C 6041.235103574811 4851.590544389205 6041.253883574811 4851.671244389205 6042.287293574811 4853.216844389205 C 6043.510493574811 4855.046544389205 6043.815543574811 4856.033044389205 6043.726613574811 4857.872344389205 C 6043.690643574811 4858.614744389205 6043.583523574811 4859.344544389205 6043.416583574811 4859.984044389205 C 6043.276283574811 4860.521544389205 6043.161313574811 4861.027244389205 6043.161113574811 4861.107844389205 C 6043.160523574811 4861.326744389205 6044.429133574811 4859.038144389205 6044.698513574811 4858.334344389205 C 6045.141683574811 4857.176444389205 6045.244233574811 4855.549644389205 6045.044303574811 4852.850444389205 C 6044.818143574811 4849.796244389205 6044.360563574811 4848.1068443892045 6043.059163574811 4845.521344389205 C 6041.527043574811 4842.477444389205 6041.088733574811 4841.868934389205 6039.553723574811 4840.654754389205 C 6037.403941574811 4838.954404389205 6037.202724574811 4838.442254389205 6037.199147574811 4834.663094389205 C 6037.197259574811 4832.721969389205 6037.209382574811 4832.584476389205 6037.403146574811 4832.342226389205 C 6037.471775574811 4832.256394522538 6037.540404574811 4832.170562655871 6037.609033574811 4832.0847307892045 C 6038.195493574811 4832.0847307892045 6038.781953574811 4832.0847307892045 6039.368413574811 4832.0847307892045 C 6039.954836908144 4832.0847307892045 6040.541260241478 4832.0847307892045 6041.127683574811 4832.0847307892045 C 6041.358613574811 4832.194894322538 6041.589543574811 4832.305057855871 6041.820473574811 4832.415221389205 C 6042.201533574811 4832.596982389205 6042.703333574811 4832.908322389205 6042.935653574811 4833.106984389205 C 6043.386383574811 4833.492404389205 6044.725633574811 4835.199384389205 6045.478633574811 4836.347904389205 C 6046.161773574811 4837.390094389205 6048.779403574811 4842.280244389205 6049.133603574811 4843.176044389205 C 6049.506403574811 4844.119044389205 6049.594203574811 4845.098544389205 6049.426203574811 4846.444044389205 C 6049.363003574811 4846.951544389205 6049.270103574811 4848.380644389205 6049.220003574811 4849.619944389205 C 6049.169903574811 4850.859244389205 6049.078803574811 4852.312944389205 6049.017503574811 4852.850444389205 C 6048.905003574811 4853.836544389205 6048.510103574811 4855.490644389205 6048.132903574811 4856.555444389205 C 6048.020303574811 4856.873344389205 6047.945103574811 4857.149944389205 6047.965703574811 4857.1702443892045 C 6048.030003574811 4857.233444389205 6048.719203574811 4856.155444389205 6049.127503574811 4855.3532443892045 C 6050.048703574811 4853.543144389205 6050.152203574811 4853.068044389205 6050.364403574811 4849.674444389205 C 6050.446603574811 4848.3577443892045 6050.631103574811 4846.466844389205 6050.774203574811 4845.472544389205 C 6051.077803574811 4843.363644389205 6051.117903574811 4841.514504389205 6050.913803574811 4839.030734389205 C 6050.766803574811 4837.241264389205 6050.823203574811 4835.581184389205 6051.062003574811 4834.674044389205C 6051.235203574811 4834.015994389205 6051.585903574811 4833.528454389205 6052.162103574811 4833.144414389205Z"/></svg>